<?xml version="1.0" encoding="UTF-8" standalone="no"?>
<svg
   xmlns="http://www.w3.org/2000/svg"
   width="682"
   height="120"
   viewBox="0 0 682 120"
   version="1.1">
  <path
     d="M 469.13672 15.261719 L 469.13672 37.363281 C 469.13672 41.306155 471.39014 43.277344 475.89453 43.277344 L 475.89453 40.164062 C 474.91797 40.164062 474.12403 39.865718 473.51367 39.267578 C 472.91553 38.657225 472.61523 37.82715 472.61523 36.777344 L 472.61523 15.261719 L 469.13672 15.261719 z M 483.51172 15.884766 C 482.91358 15.884766 482.40527 16.092772 481.99023 16.507812 C 481.57519 16.922853 481.36914 17.429204 481.36914 18.027344 C 481.36914 18.62549 481.57519 19.13916 481.99023 19.566406 C 482.41748 19.981446 482.92579 20.1875 483.51172 20.1875 C 484.10987 20.1875 484.61621 19.981446 485.03125 19.566406 C 485.4585 19.13916 485.67188 18.62549 485.67188 18.027344 C 485.67188 17.44141 485.4585 16.940431 485.03125 16.525391 C 484.61621 16.098144 484.10987 15.884766 483.51172 15.884766 z M 223.82422 21.03125 L 216.79297 56.589844 C 215.57227 62.668944 214.96289 66.58789 214.96289 68.345703 C 214.96289 74.15625 218.88184 77.060547 226.71875 77.060547 L 227.52344 71.933594 C 224.03223 71.933594 222.28711 70.44531 222.28711 67.466797 C 222.28711 65.708984 222.9834 61.363281 224.375 54.429688 L 231.07617 21.03125 L 223.82422 21.03125 z M 392.4707 22.935547 C 391.25 22.935547 390.07275 23.166993 388.9375 23.630859 C 387.81445 24.094726 387.00781 24.722165 386.51953 25.515625 C 386.4829 24.746578 386.35449 23.893065 386.13477 22.953125 L 382.74805 23.59375 C 382.99219 24.436037 383.11328 25.535645 383.11328 26.890625 C 383.11328 27.623045 383.07715 28.196288 383.00391 28.611328 L 380.47656 42.912109 L 384.0293 42.912109 L 386.59375 28.445312 C 387.0332 27.798346 387.67871 27.207035 388.5332 26.669922 C 389.38769 26.132815 390.16357 25.865234 390.85938 25.865234 C 393.1665 25.865234 394.32031 26.713383 394.32031 28.410156 C 394.32031 28.581056 394.30222 28.769043 394.26562 28.976562 L 391.79297 42.912109 L 395.36328 42.912109 L 397.92773 28.410156 C 398.34277 27.70215 398.95215 27.103514 399.75781 26.615234 C 400.57569 26.114748 401.38233 25.865234 402.17578 25.865234 C 404.33643 25.865234 405.41602 26.939457 405.41602 29.087891 C 405.41602 29.539551 405.37451 30.007807 405.28906 30.496094 L 403.0918 42.912109 L 406.66211 42.912109 L 408.98633 29.800781 C 409.09619 29.178228 409.15234 28.586917 409.15234 28.025391 C 409.15234 24.631837 407.37647 22.935547 403.82422 22.935547 C 402.70117 22.935547 401.56543 23.18506 400.41797 23.685547 C 399.27051 24.173827 398.42773 24.795894 397.89062 25.552734 C 397.07275 23.807128 395.26612 22.935547 392.4707 22.935547 z M 441.52539 22.935547 C 438.35156 22.935547 435.73829 24.125486 433.6875 26.505859 C 431.63672 28.886226 430.61133 31.944334 430.61133 35.679688 C 430.61133 37.974607 431.25879 39.817378 432.55273 41.208984 C 433.84668 42.588378 435.70215 43.277344 438.11914 43.277344 C 440.02343 43.277344 441.77588 42.92285 443.375 42.214844 L 443.75781 38.664062 C 442.13428 39.750489 440.43799 40.292969 438.66797 40.292969 C 437.52051 40.292969 436.49512 39.822753 435.5918 38.882812 C 434.70068 37.930659 434.25586 36.661132 434.25586 35.074219 C 434.25586 32.486332 434.94483 30.307129 436.32422 28.537109 C 437.71583 26.754883 439.53516 25.865234 441.78125 25.865234 C 443.2583 25.865234 444.43555 26.212403 445.31445 26.908203 L 445.95508 23.923828 C 444.88086 23.264648 443.40527 22.935547 441.52539 22.935547 z M 459.35938 22.935547 C 456.13672 22.935547 453.46387 24.076662 451.33984 26.359375 C 449.21582 28.642088 448.15234 31.44873 448.15234 34.78125 C 448.15234 40.445317 450.68067 43.277344 455.73438 43.277344 C 457.23584 43.277344 458.96289 42.953614 460.91602 42.306641 L 461.28125 38.755859 C 459.8164 39.817873 458.36425 40.347656 456.92383 40.347656 C 455.30029 40.347656 454.03614 39.915528 453.13281 39.048828 C 452.22949 38.182128 451.7793 36.941405 451.7793 35.330078 C 451.7793 34.792971 451.83349 34.232424 451.94336 33.646484 C 453.15185 34.305664 454.63476 34.634766 456.39258 34.634766 C 459.01709 34.634766 461.23242 34.01807 463.03906 32.785156 C 464.8457 31.55225 465.75 29.868655 465.75 27.732422 C 465.75 26.194335 465.16943 25.009761 464.00977 24.179688 C 462.8501 23.349608 461.30029 22.935547 459.35938 22.935547 z M 519.58203 22.935547 C 517.56787 22.935547 515.88965 23.814452 514.54688 25.572266 L 513.39453 23.300781 L 511.12305 23.300781 L 511.12305 42.912109 L 514.60156 42.912109 L 514.60156 28.445312 C 514.93116 27.798346 515.48633 27.207035 516.26758 26.669922 C 517.06104 26.132815 517.80615 25.865234 518.50195 25.865234 C 519.69824 25.865234 520.65674 26.145511 521.37695 26.707031 C 522.10938 27.256351 522.47656 28.012209 522.47656 28.976562 L 522.47656 42.912109 L 525.95508 42.912109 L 525.95508 28.410156 C 526.22363 27.750976 526.72461 27.165037 527.45703 26.652344 C 528.18946 26.127444 528.97607 25.865234 529.81836 25.865234 C 532.4917 25.865234 533.82812 27.407714 533.82812 30.496094 L 533.82812 42.912109 L 537.30664 42.912109 L 537.30664 29.800781 C 537.30664 27.627935 536.75146 25.94434 535.64062 24.748047 C 534.52978 23.539554 532.96191 22.935547 530.93555 22.935547 C 529.8125 22.935547 528.72022 23.18506 527.6582 23.685547 C 526.59619 24.186034 525.86914 24.808101 525.47852 25.552734 C 524.35547 23.807128 522.38965 22.935547 519.58203 22.935547 z M 412.00781 23.300781 L 414.46094 37.912109 C 415.02246 41.305663 416.16553 43.003906 417.88672 43.003906 C 417.47168 44.371093 416.78808 45.396485 415.83594 46.080078 C 414.88379 46.763671 413.27246 47.105469 411.00195 47.105469 L 411.00195 50.601562 C 413.84619 50.601562 415.95654 50.174806 417.33594 49.320312 C 418.71533 48.465819 419.82032 47.111326 420.65039 45.255859 L 430.48438 23.300781 L 426.5293 23.300781 L 419.46094 39.634766 C 418.66748 39.634766 418.1665 38.93115 417.95898 37.527344 L 415.79883 23.300781 L 412.00781 23.300781 z M 478.91406 23.300781 L 478.91406 26.230469 L 481.60742 26.230469 L 481.60742 42.912109 L 485.08594 42.912109 L 485.08594 23.300781 L 478.91406 23.300781 z M 490.43164 23.300781 L 490.43164 36.173828 C 490.43164 38.444341 490.99951 40.194828 492.13477 41.427734 C 493.28223 42.660648 494.92968 43.277344 497.07812 43.277344 C 498.20117 43.277344 499.34961 42.960939 500.52148 42.326172 C 501.70556 41.679199 502.49219 40.970212 502.88281 40.201172 L 502.88281 42.912109 L 506.36328 42.912109 L 506.36328 23.300781 L 502.88281 23.300781 L 502.88281 37.070312 C 502.57764 37.937012 501.9502 38.700195 500.99805 39.359375 C 500.0459 40.018555 498.99512 40.347656 497.84766 40.347656 C 495.22314 40.347656 493.91211 38.833987 493.91211 35.806641 L 493.91211 23.300781 L 490.43164 23.300781 z M 459.19531 25.865234 C 461.27051 25.865234 462.30664 26.615728 462.30664 28.117188 C 462.30664 29.301274 461.70264 30.203612 460.49414 30.826172 C 459.28565 31.436519 457.73047 31.742188 455.82617 31.742188 C 454.56885 31.742188 453.47461 31.534181 452.54688 31.119141 C 453.8164 27.615727 456.03369 25.865234 459.19531 25.865234 z M 54.085938 36.375 C 50.057618 36.375 46.701171 38.132811 44.015625 41.648438 L 41.708984 37.107422 L 37.167969 37.107422 L 37.167969 76.328125 L 44.125 76.328125 L 44.125 47.398438 C 44.78418 46.104491 45.894534 44.919923 47.457031 43.845703 C 49.043945 42.771483 50.534175 42.234375 51.925781 42.234375 C 54.318355 42.234375 56.235348 42.794922 57.675781 43.917969 C 59.140621 45.016602 59.873047 46.530271 59.873047 48.458984 L 59.873047 76.328125 L 66.830078 76.328125 L 66.830078 47.324219 C 67.367191 46.005859 68.369144 44.833987 69.833984 43.808594 C 71.298831 42.758787 72.872074 42.234375 74.556641 42.234375 C 79.903321 42.234375 82.578125 45.32324 82.578125 51.5 L 82.578125 76.328125 L 89.535156 76.328125 L 89.535156 50.107422 C 89.535156 45.761715 88.424805 42.392573 86.203125 40 C 83.981445 37.583007 80.843749 36.375 76.791016 36.375 C 74.544922 36.375 72.360355 36.87598 70.236328 37.876953 C 68.112308 38.877933 66.66016 40.122068 65.878906 41.611328 C 63.632813 38.120115 59.701171 36.375 54.085938 36.375 z M 154.24414 36.375 C 147.94531 36.375 142.97754 38.266601 139.33984 42.050781 C 135.72656 45.834961 133.91992 50.851562 133.91992 57.101562 C 133.91992 63.229489 135.66504 68.088868 139.15625 71.677734 C 142.64746 75.266601 147.06738 77.060547 152.41406 77.060547 C 157.93164 77.060547 162.55762 75.852534 166.29297 73.435547 L 163.54688 67.576172 C 160.37305 69.993165 157.22266 71.201172 154.09766 71.201172 C 150.06934 71.201172 146.9209 70.005861 144.65039 67.613281 C 142.37988 65.196288 141.24414 61.691403 141.24414 57.101562 C 141.24414 52.487302 142.35449 48.863283 144.57617 46.226562 C 146.79785 43.565429 149.80176 42.234375 153.58594 42.234375 C 155.31934 42.234375 157.07715 42.55078 158.85938 43.185547 C 160.66601 43.820314 161.92285 44.493165 162.63086 45.201172 L 166.07422 40.292969 C 164.95117 39.389649 163.2041 38.510743 160.83594 37.65625 C 158.46777 36.801757 156.27051 36.375 154.24414 36.375 z M 189.51172 36.375 C 184.70215 36.375 180.53906 38.120115 177.02344 41.611328 C 173.09278 45.517575 171.12695 50.706055 171.12695 57.175781 C 171.12695 63.401368 173.04395 68.356449 176.87695 72.042969 C 180.31933 75.387695 184.50586 77.060547 189.4375 77.060547 C 192.85547 77.060547 195.95703 76.548824 198.74023 75.523438 C 200.96191 74.742184 202.60937 73.814454 203.68359 72.740234 L 200.75391 67.722656 C 198.09277 70.04199 194.77246 71.201172 190.79297 71.201172 C 187.30176 71.201172 184.44434 70.126956 182.22266 67.978516 C 179.70801 65.512696 178.45117 61.984371 178.45117 57.394531 L 206.72266 57.394531 C 207.08887 56.100585 207.27148 54.684571 207.27148 53.146484 C 207.27148 48.141604 205.73438 44.126956 202.6582 41.099609 C 199.48438 37.950196 195.10254 36.375 189.51172 36.375 z M 290.62109 36.375 C 286.49511 36.375 283.01758 37.485351 280.18555 39.707031 C 277.35352 41.904298 275.9375 44.821291 275.9375 48.458984 C 275.9375 50.021484 276.32813 51.499025 277.10938 52.890625 C 277.91504 54.257812 279.11035 55.393555 280.69727 56.296875 L 285.86133 59.152344 C 287.69239 60.20215 288.97461 61.129887 289.70703 61.935547 C 290.46386 62.741214 290.8418 63.658207 290.8418 64.683594 C 290.8418 66.685547 290.13281 68.271479 288.7168 69.443359 C 287.30078 70.615233 285.50684 71.201172 283.33398 71.201172 C 282.06445 71.201172 280.53809 70.81055 278.75586 70.029297 C 276.97363 69.223637 275.60644 68.344725 274.6543 67.392578 L 271.0293 73.984375 C 274.30078 76.035155 277.99903 77.060547 282.125 77.060547 C 286.8125 77.060547 290.66992 75.839844 293.69727 73.398438 C 296.74902 70.957037 298.27539 67.63672 298.27539 63.4375 C 298.27539 61.850587 297.88476 60.385742 297.10352 59.042969 C 296.32226 57.700195 295.13769 56.60254 293.55078 55.748047 L 288.42383 52.964844 C 286.56836 51.96387 285.2627 51.059573 284.50586 50.253906 C 283.74903 49.448246 283.37109 48.484375 283.37109 47.361328 C 283.37109 45.823241 284.0293 44.589843 285.34766 43.662109 C 286.69043 42.709956 288.27832 42.234375 290.10938 42.234375 C 292.86816 42.234375 295.44336 43.33203 297.83594 45.529297 L 300.94922 39.083984 C 296.9209 37.277344 293.47753 36.375 290.62109 36.375 z M 325.48438 36.375 C 319.16113 36.375 313.94922 38.877933 309.84766 43.882812 C 305.7461 48.887699 303.69531 54.893557 303.69531 61.900391 C 303.69531 66.709964 304.95215 70.444335 307.4668 73.105469 C 309.98144 75.742182 313.59473 77.060547 318.30664 77.060547 C 323.06739 77.060547 327.14551 75.71875 330.53906 73.033203 C 333.95703 70.347656 336.41113 66.978515 337.90039 62.925781 C 339.41406 58.873048 340.16992 54.966798 340.16992 51.207031 C 340.16992 46.470705 338.91309 42.819339 336.39844 40.255859 C 333.88379 37.667973 330.24512 36.375 325.48438 36.375 z M 94.917969 37.107422 L 105.53906 64.390625 C 106.73535 67.466792 107.71191 70.054684 108.46875 72.154297 C 109.22558 74.22949 109.60352 76.339841 109.60352 78.488281 C 109.60352 80.441401 108.56543 82.09082 106.49023 83.433594 C 104.41503 84.800787 101.9248 85.484375 99.019531 85.484375 L 99.019531 91.708984 C 102.58398 91.708984 105.80664 90.878903 108.6875 89.21875 C 111.59277 87.55859 113.49707 85.484374 114.40039 82.994141 L 131.02734 37.107422 L 123.92188 37.107422 L 113.55859 67.429688 L 102.02344 37.107422 L 94.917969 37.107422 z M 236.78906 37.107422 L 241.69531 66.330078 C 242.81837 73.117191 245.10254 76.511719 248.54492 76.511719 C 247.71484 79.246092 246.34765 81.296876 244.44336 82.664062 C 242.53906 84.031249 239.3164 84.714844 234.77539 84.714844 L 234.77539 91.708984 C 240.46386 91.708984 244.68652 90.855471 247.44531 89.146484 C 250.2041 87.437504 252.41407 84.726565 254.07422 81.015625 L 273.74023 37.107422 L 265.83008 37.107422 L 251.69336 69.773438 C 250.10645 69.773438 249.10645 68.37012 248.69141 65.5625 L 244.36914 37.107422 L 236.78906 37.107422 z M 324.49609 42.050781 C 330.03809 42.050781 332.80859 45.201173 332.80859 51.5 C 332.80859 56.749027 331.58789 61.375 329.14648 65.378906 C 326.72949 69.382806 323.45801 71.384766 319.33203 71.384766 C 313.79004 71.384766 311.01953 68.077144 311.01953 61.460938 C 311.01953 58.775391 311.49512 55.869141 312.44727 52.744141 C 313.39941 49.619141 314.93847 47.056641 317.0625 45.054688 C 319.21093 43.052734 321.68847 42.050781 324.49609 42.050781 z M 189.83984 42.234375 C 193.16015 42.234375 195.78613 43.25976 197.71484 45.310547 C 199.47266 47.190427 200.35156 49.534177 200.35156 52.341797 L 178.63477 52.341797 C 178.90332 49.509764 180.03906 47.140628 182.04102 45.236328 C 184.14063 43.234375 186.73926 42.234375 189.83984 42.234375 z M 446.32227 62.136719 L 442.80664 79.917969 C 442.19629 82.957522 441.89062 84.916015 441.89062 85.794922 C 441.89062 88.700195 443.85108 90.152344 447.76953 90.152344 L 448.17188 87.589844 C 446.42627 87.589844 445.55273 86.844729 445.55273 85.355469 C 445.55273 84.476562 445.90186 82.302731 446.59766 78.835938 L 449.94727 62.136719 L 446.32227 62.136719 z M 568.14258 62.136719 C 566.11621 62.136719 564.48682 62.851077 563.25391 64.279297 C 562.021 65.707524 561.4043 67.673341 561.4043 70.175781 L 558.54688 70.175781 L 558.54688 73.105469 L 561.4043 73.105469 L 561.4043 89.787109 L 564.88281 89.787109 L 564.88281 73.105469 L 568.875 73.105469 L 568.875 70.175781 L 564.88281 70.175781 C 564.82181 69.821775 564.79102 69.479977 564.79102 69.150391 C 564.79102 67.917477 565.13281 66.897457 565.81641 66.091797 C 566.51221 65.28613 567.39111 64.884766 568.45312 64.884766 C 569.06348 64.884766 569.72363 65.00586 570.43164 65.25 L 571.40234 62.6875 C 570.24268 62.321287 569.15576 62.136719 568.14258 62.136719 z M 490.98242 62.759766 C 490.38428 62.759766 489.87598 62.967772 489.46094 63.382812 C 489.0459 63.797853 488.83984 64.304204 488.83984 64.902344 C 488.83984 65.50049 489.0459 66.01416 489.46094 66.441406 C 489.88818 66.856446 490.39648 67.0625 490.98242 67.0625 C 491.58056 67.0625 492.08691 66.856446 492.50195 66.441406 C 492.9292 66.01416 493.14258 65.50049 493.14258 64.902344 C 493.14258 64.31641 492.9292 63.815431 492.50195 63.400391 C 492.08691 62.973144 491.58056 62.759766 490.98242 62.759766 z M 578.39648 64.738281 L 574.91797 66.074219 L 574.91797 70.175781 L 572.64648 70.175781 L 572.64648 72.921875 L 574.91797 72.921875 L 574.91797 84.054688 C 574.91797 85.812501 575.44775 87.271967 576.50977 88.431641 C 577.58399 89.579101 578.89697 90.152344 580.44727 90.152344 C 582.16845 90.152344 583.74902 89.969729 585.18945 89.603516 L 584.67578 86.544922 C 583.72363 86.996582 582.80322 87.222656 581.91211 87.222656 C 580.6792 87.222656 579.78223 86.875488 579.2207 86.179688 C 578.67139 85.483887 578.39648 84.312016 578.39648 82.664062 L 578.39648 72.921875 L 583.7793 72.921875 L 583.7793 70.175781 L 578.39648 70.175781 L 578.39648 64.738281 z M 387.875 69.810547 C 386.81299 69.810547 385.69531 70.005858 384.52344 70.396484 C 383.36376 70.774898 382.4541 71.232418 381.79492 71.769531 L 383.25977 74.679688 C 384.43164 73.507814 386.10449 72.921875 388.27734 72.921875 C 391.10937 72.921875 392.52539 74.509767 392.52539 77.683594 C 391.59766 77.366214 390.76758 77.207031 390.03516 77.207031 C 387.3374 77.207031 385.1167 77.895997 383.37109 79.275391 C 381.63769 80.642577 380.76953 82.322753 380.76953 84.3125 C 380.76953 85.97266 381.33203 87.363281 382.45508 88.486328 C 383.59033 89.597168 384.92676 90.152344 386.46484 90.152344 C 389.3335 90.152344 391.46387 89.280763 392.85547 87.535156 C 393.16065 88.46289 393.66162 89.126464 394.35742 89.529297 C 395.06543 89.93213 396.12696 90.134766 397.54297 90.134766 L 397.54297 88.394531 C 396.51758 87.820805 396.00391 86.674318 396.00391 84.953125 L 396.00391 77.921875 C 396.00391 75.102055 395.3584 73.043947 394.06445 71.75 C 392.78271 70.456053 390.71923 69.810547 387.875 69.810547 z M 410.58008 69.810547 C 407.97998 69.810547 406.10644 70.774412 404.95898 72.703125 L 403.85938 70.175781 L 401.48047 70.175781 L 401.48047 89.787109 L 404.95898 89.787109 L 404.95898 75.210938 C 405.42285 74.515137 406.08838 73.929198 406.95508 73.453125 C 407.82177 72.977052 408.65185 72.740234 409.44531 72.740234 C 410.92237 72.740234 411.9712 73.159673 412.59375 74.001953 C 413.22852 74.832033 413.54688 76.2915 413.54688 78.378906 L 413.54688 89.787109 L 417.02539 89.787109 L 417.02539 77.646484 C 417.02539 72.421878 414.87696 69.810547 410.58008 69.810547 z M 428.08398 69.810547 C 427.02197 69.810547 425.90625 70.005858 424.73438 70.396484 C 423.5747 70.774898 422.66503 71.232418 422.00586 71.769531 L 423.4707 74.679688 C 424.64258 73.507814 426.31543 72.921875 428.48828 72.921875 C 431.32031 72.921875 432.73633 74.509767 432.73633 77.683594 C 431.80859 77.366214 430.97851 77.207031 430.24609 77.207031 C 427.54834 77.207031 425.32568 77.895997 423.58008 79.275391 C 421.84668 80.642577 420.98047 82.322753 420.98047 84.3125 C 420.98047 85.97266 421.54102 87.363281 422.66406 88.486328 C 423.79932 89.597168 425.1377 90.152344 426.67578 90.152344 C 429.54443 90.152344 431.67285 89.280763 433.06445 87.535156 C 433.36963 88.46289 433.87061 89.126464 434.56641 89.529297 C 435.27441 89.93213 436.33593 90.134766 437.75195 90.134766 L 437.75195 88.394531 C 436.72656 87.820805 436.21484 86.674318 436.21484 84.953125 L 436.21484 77.921875 C 436.21484 75.102055 435.56738 73.043947 434.27344 71.75 C 432.9917 70.456053 430.92822 69.810547 428.08398 69.810547 z M 477.43164 69.810547 C 475.53955 69.810547 474.00782 70.260743 472.83594 71.164062 C 471.66406 72.067382 471.07812 73.326173 471.07812 74.9375 C 471.07813 75.56006 471.17578 76.145992 471.37109 76.695312 C 471.57861 77.232419 471.88428 77.744142 472.28711 78.232422 C 472.70215 78.708495 473.18311 79.135252 473.73242 79.513672 C 474.29395 79.892092 475.37549 80.447267 476.97461 81.179688 C 479.0498 82.107421 480.08594 83.219725 480.08594 84.513672 C 480.08594 86.320312 479.01172 87.222656 476.86328 87.222656 C 475.6792 87.222656 474.1167 86.587893 472.17578 85.318359 L 470.94922 88.615234 C 472.76807 89.640628 474.71045 90.152344 476.77344 90.152344 C 478.9585 90.152344 480.66748 89.658695 481.90039 88.669922 C 483.1333 87.668949 483.74805 86.289063 483.74805 84.53125 C 483.74805 83.188477 483.40088 82.070801 482.70508 81.179688 C 482.00928 80.288574 480.89893 79.496581 479.37305 78.800781 L 476.88281 77.664062 C 475.45459 77.017096 474.74023 76.06592 474.74023 74.808594 C 474.74023 74.210447 475.0205 73.716799 475.58203 73.326172 C 476.15576 72.935552 476.85742 72.740234 477.6875 72.740234 C 479.0791 72.740234 480.46436 73.288085 481.84375 74.386719 L 482.83398 71.164062 C 480.66113 70.260743 478.85986 69.810547 477.43164 69.810547 z M 503.28711 69.810547 C 501.39502 69.810547 499.86133 70.260743 498.68945 71.164062 C 497.51757 72.067382 496.93164 73.326173 496.93164 74.9375 C 496.93164 75.56006 497.0293 76.145992 497.22461 76.695312 C 497.43213 77.232419 497.73779 77.744142 498.14062 78.232422 C 498.55566 78.708495 499.03858 79.135252 499.58789 79.513672 C 500.14942 79.892092 501.229 80.447267 502.82812 81.179688 C 504.90332 82.107421 505.94141 83.219725 505.94141 84.513672 C 505.94141 86.320312 504.86718 87.222656 502.71875 87.222656 C 501.53466 87.222656 499.97216 86.587893 498.03125 85.318359 L 496.80469 88.615234 C 498.62353 89.640628 500.56397 90.152344 502.62695 90.152344 C 504.81201 90.152344 506.52099 89.658695 507.75391 88.669922 C 508.98681 87.668949 509.60352 86.289063 509.60352 84.53125 C 509.60352 83.188477 509.25635 82.070801 508.56055 81.179688 C 507.86475 80.288574 506.75244 79.496581 505.22656 78.800781 L 502.73633 77.664062 C 501.3081 77.017096 500.59375 76.06592 500.59375 74.808594 C 500.59375 74.210447 500.87597 73.716799 501.4375 73.326172 C 502.01123 72.935552 502.71289 72.740234 503.54297 72.740234 C 504.93457 72.740234 506.31983 73.288085 507.69922 74.386719 L 508.6875 71.164062 C 506.51465 70.260743 504.71534 69.810547 503.28711 69.810547 z M 532.01562 69.810547 C 529.95264 69.810547 528.21289 70.365723 526.79688 71.476562 C 525.38086 72.575196 524.67383 74.032716 524.67383 75.851562 C 524.67383 76.632809 524.86914 77.372553 525.25977 78.068359 C 525.6626 78.751953 526.25928 79.319824 527.05273 79.771484 L 529.63477 81.199219 C 530.55029 81.724119 531.19238 82.18701 531.55859 82.589844 C 531.93701 82.992677 532.125 83.450197 532.125 83.962891 C 532.125 84.963871 531.77051 85.757817 531.0625 86.34375 C 530.35449 86.92969 529.45752 87.222656 528.37109 87.222656 C 527.73633 87.222656 526.97314 87.027345 526.08203 86.636719 C 525.19092 86.233885 524.50732 85.794433 524.03125 85.318359 L 522.21875 88.615234 C 523.85449 89.640628 525.70459 90.152344 527.76758 90.152344 C 530.11133 90.152344 532.03906 89.542972 533.55273 88.322266 C 535.07861 87.101566 535.8418 85.44141 535.8418 83.341797 C 535.8418 82.548344 535.64649 81.815918 535.25586 81.144531 C 534.86523 80.473145 534.27393 79.92334 533.48047 79.496094 L 530.91602 78.103516 C 529.98828 77.603022 529.33545 77.152827 528.95703 76.75 C 528.57861 76.347167 528.39062 75.864261 528.39062 75.302734 C 528.39062 74.533694 528.71973 73.916992 529.37891 73.453125 C 530.05029 72.977052 530.84424 72.740234 531.75977 72.740234 C 533.13917 72.740234 534.42676 73.288085 535.62305 74.386719 L 537.17969 71.164062 C 535.16552 70.260743 533.44384 69.810547 532.01562 69.810547 z M 549.44727 69.810547 C 546.28565 69.810547 543.67969 71.06006 541.62891 73.5625 C 539.57813 76.06494 538.55273 79.068846 538.55273 82.572266 C 538.55273 84.977052 539.18018 86.845215 540.4375 88.175781 C 541.69483 89.494141 543.50147 90.152344 545.85742 90.152344 C 548.2378 90.152344 550.27783 89.481445 551.97461 88.138672 C 553.68359 86.795899 554.90966 85.110351 555.6543 83.083984 C 556.41113 81.057618 556.78906 79.104496 556.78906 77.224609 C 556.78906 74.856443 556.16162 73.031733 554.9043 71.75 C 553.64698 70.456053 551.82764 69.810547 549.44727 69.810547 z M 622.54297 69.810547 C 621.48096 69.810547 620.36329 70.005858 619.19141 70.396484 C 618.03174 70.774898 617.12207 71.232418 616.46289 71.769531 L 617.92773 74.679688 C 619.09961 73.507814 620.77246 72.921875 622.94531 72.921875 C 625.77734 72.921875 627.19336 74.509767 627.19336 77.683594 C 626.26563 77.366214 625.43554 77.207031 624.70312 77.207031 C 622.00537 77.207031 619.78467 77.895997 618.03906 79.275391 C 616.30566 80.642577 615.4375 82.322753 615.4375 84.3125 C 615.4375 85.97266 616 87.363281 617.12305 88.486328 C 618.2583 89.597168 619.59473 90.152344 621.13281 90.152344 C 624.00147 90.152344 626.13184 89.280763 627.52344 87.535156 C 627.82862 88.46289 628.32959 89.126464 629.02539 89.529297 C 629.7334 89.93213 630.79492 90.134766 632.21094 90.134766 L 632.21094 88.394531 C 631.18555 87.820805 630.67188 86.674318 630.67188 84.953125 L 630.67188 77.921875 C 630.67188 75.102055 630.02637 73.043947 628.73242 71.75 C 627.45068 70.456053 625.38721 69.810547 622.54297 69.810547 z M 645.55859 69.810547 C 643.05615 69.810547 641.16992 70.975101 639.90039 73.306641 L 639.90039 70.175781 L 636.42188 70.175781 L 636.42188 89.787109 L 639.90039 89.787109 L 639.90039 78.542969 C 639.90039 76.943849 640.35986 75.57666 641.27539 74.441406 C 642.20313 73.306153 643.28272 72.740234 644.51562 72.740234 C 645.28467 72.740234 646.04785 73.002444 646.80469 73.527344 L 648.25 70.138672 C 647.07813 69.918945 646.18115 69.810547 645.55859 69.810547 z M 658.63281 69.810547 C 656.22803 69.810547 654.14648 70.682128 652.38867 72.427734 C 650.42334 74.380861 649.44141 76.976077 649.44141 80.210938 C 649.44141 83.323731 650.39991 85.801271 652.31641 87.644531 C 654.0376 89.316898 656.12988 90.152344 658.5957 90.152344 C 660.30469 90.152344 661.85645 89.895512 663.24805 89.382812 C 664.35889 88.992192 665.18164 88.529301 665.71875 87.992188 L 664.25391 85.484375 C 662.92334 86.644042 661.26318 87.222656 659.27344 87.222656 C 657.52783 87.222656 656.09912 86.685548 654.98828 85.611328 C 653.73096 84.378421 653.10352 82.615239 653.10352 80.320312 L 667.23828 80.320312 C 667.42139 79.673339 667.51367 78.964352 667.51367 78.195312 C 667.51367 75.692873 666.74512 73.685548 665.20703 72.171875 C 663.62012 70.597168 661.42823 69.810547 658.63281 69.810547 z M 586.34375 70.121094 L 593.35547 90.152344 L 594.27148 90.152344 L 600.00195 76.804688 L 605.75195 90.152344 L 606.66797 90.152344 L 613.69922 70.121094 L 610.27539 70.121094 L 605.76953 82.994141 L 600.38672 70.121094 L 599.4707 70.121094 L 594.25391 82.994141 L 590.06055 70.121094 L 586.34375 70.121094 z M 452.80469 70.175781 L 455.25781 84.787109 C 455.81933 88.180663 456.96045 89.878906 458.68164 89.878906 C 458.2666 91.246093 457.58301 92.271485 456.63086 92.955078 C 455.67871 93.638671 454.06738 93.980469 451.79688 93.980469 L 451.79688 97.476562 C 454.64111 97.476563 456.75342 97.049806 458.13281 96.195312 C 459.51221 95.340819 460.61719 93.986326 461.44727 92.130859 L 471.2793 70.175781 L 467.32422 70.175781 L 460.25586 86.509766 C 459.4624 86.509766 458.96338 85.80615 458.75586 84.402344 L 456.59375 70.175781 L 452.80469 70.175781 z M 486.38477 70.175781 L 486.38477 73.105469 L 489.07812 73.105469 L 489.07812 89.787109 L 492.55664 89.787109 L 492.55664 70.175781 L 486.38477 70.175781 z M 548.95312 72.648438 C 551.72412 72.648438 553.10938 74.221674 553.10938 77.371094 C 553.10938 79.9956 552.49804 82.310547 551.27734 84.3125 C 550.06884 86.314453 548.43408 87.314453 546.37109 87.314453 C 543.6001 87.314453 542.21484 85.659669 542.21484 82.351562 C 542.21484 81.008789 542.45166 79.556641 542.92773 77.994141 C 543.40381 76.431641 544.17431 75.149411 545.23633 74.148438 C 546.31054 73.147457 547.54931 72.648438 548.95312 72.648438 z M 658.79688 72.740234 C 660.45703 72.740234 661.77001 73.251957 662.73438 74.277344 C 663.61328 75.217284 664.05273 76.389155 664.05273 77.792969 L 653.19531 77.792969 C 653.32959 76.376949 653.89746 75.192381 654.89844 74.240234 C 655.94824 73.239261 657.24658 72.740234 658.79688 72.740234 z M 390.21875 79.789062 C 390.6582 79.789062 391.42676 79.910157 392.52539 80.154297 L 392.52539 84.898438 C 391.17041 86.570798 389.61523 87.40625 387.85742 87.40625 C 385.45264 87.40625 384.25 86.38623 384.25 84.347656 C 384.25 83.11475 384.80518 82.047851 385.91602 81.144531 C 387.02686 80.241211 388.46094 79.789062 390.21875 79.789062 z M 430.42773 79.789062 C 430.86719 79.789062 431.63769 79.910157 432.73633 80.154297 L 432.73633 84.898438 C 431.38135 86.570798 429.82422 87.40625 428.06641 87.40625 C 425.66162 87.40625 424.45898 86.38623 424.45898 84.347656 C 424.45898 83.11475 425.01416 82.047851 426.125 81.144531 C 427.23584 80.241211 428.66992 79.789062 430.42773 79.789062 z M 624.88672 79.789062 C 625.32617 79.789062 626.09473 79.910157 627.19336 80.154297 L 627.19336 84.898438 C 625.83838 86.570798 624.2832 87.40625 622.52539 87.40625 C 620.12061 87.40625 618.91797 86.38623 618.91797 84.347656 C 618.91797 83.11475 619.47314 82.047851 620.58398 81.144531 C 621.69482 80.241211 623.12891 79.789062 624.88672 79.789062 z "
     style="fill:#5c5c5b;stroke:none;" />
</svg>
