<?xml version="1.0" encoding="UTF-8" standalone="no"?>
<svg xmlns="http://www.w3.org/2000/svg" height="70" width="303" viewBox="0 0 303 70" version="1.1">
  <path
     style="fill:#5c5c5b;stroke:none"
     d="M 186.6582,-0.67870868 179.62695,34.879885 c -1.2207,6.079099 -1.83203,9.998046 -1.83203,11.755859 0,5.810546 3.91895,8.714844 11.75586,8.714844 l 0.80469,-5.126953 c -3.49121,0 -5.23633,-1.488284 -5.23633,-4.466797 0,-1.757813 0.69629,-6.103517 2.08789,-13.037109 l 6.70117,-33.39843768 -7.25,0 z M 16.919922,14.665041 c -4.02832,0 -7.3867201,1.757811 -10.0722658,5.273438 l -2.3066406,-4.541016 -4.5410156,0 0,39.220703 6.9589844,0 0,-28.929687 c 0.6591799,-1.293947 1.7695341,-2.478515 3.3320316,-3.552735 1.586913,-1.07422 3.07519,-1.611328 4.466796,-1.611328 2.392574,0 4.309567,0.5625 5.75,1.685547 1.46484,1.098633 2.197266,2.612302 2.197266,4.541016 l 0,27.867187 6.958984,0 0,-29.001953 c 0.537114,-1.31836 1.537114,-2.492185 3.001954,-3.517578 1.464846,-1.049807 3.040043,-1.574219 4.724609,-1.574219 5.346679,0 8.019531,3.088866 8.019531,9.265625 l 0,24.828125 6.958985,0 0,-26.220703 c 0,-4.345706 -1.112305,-7.712896 -3.333985,-10.105469 -2.221679,-2.416993 -5.357423,-3.626953 -9.410156,-3.626953 -2.246093,0 -4.432614,0.50098 -6.556641,1.501953 -2.124019,1.00098 -3.576168,2.247068 -4.357421,3.736328 -2.246094,-3.491213 -6.175783,-5.238281 -11.791016,-5.238281 z m 100.158198,0 c -6.29882,0 -11.2666,1.891602 -14.90429,5.675781 -3.613279,3.78418 -5.419924,8.802735 -5.419924,15.052735 0,6.127926 1.745125,10.985352 5.236324,14.574218 3.49122,3.588867 7.90918,5.382813 13.25586,5.382813 5.51758,0 10.14356,-1.208014 13.87891,-3.625 l -2.74609,-5.859375 c -3.17383,2.416993 -6.32227,3.625 -9.44727,3.625 -4.02832,0 -7.17871,-1.195311 -9.44922,-3.587891 -2.27051,-2.416993 -3.40625,-5.919926 -3.40625,-10.509765 0,-4.61426 1.11231,-8.240234 3.33399,-10.876954 2.22168,-2.661133 5.22363,-3.992187 9.00781,-3.992187 1.7334,0 3.49121,0.318358 5.27344,0.953125 1.80664,0.634767 3.06347,1.305665 3.77148,2.013672 l 3.44336,-4.90625 c -1.12305,-0.90332 -2.86816,-1.782226 -5.23633,-2.636719 -2.36816,-0.854493 -4.56543,-1.283203 -6.5918,-1.283203 z m 35.26563,0 c -4.80957,0 -8.97266,1.747068 -12.48828,5.238281 -3.93066,3.906246 -5.89649,9.092774 -5.89649,15.5625 0,6.225586 1.917,11.182621 5.75,14.869141 3.44238,3.344726 7.62891,5.015625 12.56055,5.015625 3.41797,0 6.51954,-0.511723 9.30274,-1.537109 2.22168,-0.781254 3.86914,-1.708984 4.94335,-2.783204 l -2.92968,-5.017578 c -2.66114,2.319333 -5.98145,3.478516 -9.96094,3.478516 -3.49121,0 -6.34668,-1.074217 -8.56836,-3.222656 -2.51465,-2.46582 -3.77344,-5.992192 -3.77344,-10.582032 l 28.27149,0 c 0.36621,-1.293946 0.55078,-2.70996 0.55078,-4.248046 0,-5.00488 -1.53906,-9.021482 -4.61524,-12.048829 -3.17382,-3.149413 -7.55566,-4.724609 -13.14648,-4.724609 z m 101.11133,0 c -4.12598,0 -7.60547,1.110352 -10.4375,3.332031 -2.83203,2.197267 -4.24805,5.116214 -4.24805,8.753907 0,1.562499 0.39063,3.038087 1.17188,4.429687 0.80566,1.367187 2.00097,2.50293 3.58789,3.40625 l 5.16406,2.857422 c 1.83106,1.049806 3.11328,1.977543 3.8457,2.783203 0.75684,0.805667 1.13477,1.720707 1.13477,2.746094 0,2.001953 -0.70704,3.587886 -2.12305,4.759765 -1.41601,1.171874 -3.21191,1.757813 -5.38476,1.757813 -1.26954,0 -2.79395,-0.390622 -4.57618,-1.171875 -1.78222,-0.80566 -3.14941,-1.684572 -4.10156,-2.636719 l -3.62695,6.591797 c 3.27148,2.05078 6.97168,3.076172 11.09765,3.076172 4.6875,0 8.54492,-1.220703 11.57227,-3.662109 3.05175,-2.4414 4.57617,-5.761719 4.57617,-9.960938 0,-1.586913 -0.39063,-3.049805 -1.17187,-4.392578 -0.78126,-1.342773 -1.96387,-2.442382 -3.55078,-3.296875 l -5.12696,-2.783203 c -1.85546,-1.000973 -3.16308,-1.905271 -3.91992,-2.710938 -0.75683,-0.80566 -1.13477,-1.769531 -1.13477,-2.892578 0,-1.538086 0.66016,-2.769532 1.97852,-3.697266 1.34277,-0.952153 2.92871,-1.429687 4.75977,-1.429687 2.75878,0 5.33398,1.099609 7.72656,3.296875 l 3.11328,-6.445312 c -4.02832,-1.80664 -7.46973,-2.710938 -10.32617,-2.710938 z m 34.86328,0 c -6.32325,0 -11.53711,2.502933 -15.63867,7.507812 -4.10156,5.004887 -6.15235,11.010746 -6.15235,18.017579 0,4.809572 1.25879,8.543945 3.77344,11.205078 2.51465,2.636713 6.12793,3.955078 10.83984,3.955078 4.76075,0 8.83692,-1.341798 12.23047,-4.027344 3.41797,-2.685546 5.87207,-6.054689 7.36133,-10.107422 1.51368,-4.052733 2.26953,-7.958984 2.26953,-11.71875 0,-4.736326 -1.25683,-8.385739 -3.77148,-10.949219 -2.51465,-2.587886 -6.15137,-3.882812 -10.91211,-3.882812 z M 57.751953,15.397463 68.371094,42.680666 c 1.196286,3.076166 2.172847,5.664059 2.929687,7.763672 0.756833,2.075193 1.136719,4.187498 1.136719,6.335937 0,1.95312 -1.038088,3.600587 -3.113281,4.94336 -2.0752,1.367193 -4.56543,2.050781 -7.470703,2.050781 l 0,6.224609 c 3.564453,0 6.787109,-0.830081 9.667968,-2.490234 2.905273,-1.66016 4.809571,-3.734376 5.712891,-6.224609 l 16.625,-45.886719 -7.103516,0 -10.363281,30.322266 -11.537109,-30.322266 -7.103516,0 z m 141.869137,0 4.90821,29.224609 c 1.12305,6.787113 3.40527,10.179688 6.84765,10.179688 -0.83008,2.734373 -2.19727,4.785157 -4.10156,6.152343 -1.9043,1.367187 -5.12696,2.050782 -9.66797,2.050782 l 0,6.99414 c 5.68847,0 9.91113,-0.853513 12.66992,-2.5625 2.75879,-1.708979 4.96876,-4.419919 6.62891,-8.130859 l 19.66602,-43.908203 -7.91016,0 -14.13672,32.666016 c -1.58691,-10e-7 -2.58691,-1.403318 -3.00195,-4.210938 l -4.32227,-28.455078 -7.58008,0 z m 87.70703,4.943359 c 5.542,0 8.31446,3.150393 8.31446,9.449219 0,5.249026 -1.2207,9.875 -3.66211,13.878906 -2.41699,4.0039 -5.68847,6.00586 -9.81445,6.00586 -5.54199,0 -8.31446,-3.307623 -8.31446,-9.923828 0,-2.685547 0.47754,-5.591798 1.42969,-8.716797 0.95215,-3.125 2.48925,-5.6875 4.61328,-7.689453 2.14843,-2.001954 4.62598,-3.003907 7.43359,-3.003907 z m -134.65429,0.183594 c 3.3203,0 5.94433,1.025385 7.87305,3.076172 1.75781,1.87988 2.63671,4.22363 2.63671,7.03125 l -21.71679,0 c 0.26855,-2.832033 1.40429,-5.199216 3.40625,-7.103516 2.09961,-2.001953 4.70019,-3.003906 7.80078,-3.003906 z"
  />
</svg>
